<svg viewBox="0 0 64 64" xmlns="http://www.w3.org/2000/svg">
    <path fill="#42A342" d="M0 0h64v64H0z"/>
    <path d="M52.587 33.028l-7.845-3.064a2.11 2.11 0 00-1.512 0l-7.845 3.064c-.73.286-1.206.954-1.206 1.696 0 7.6 4.679 12.857 9.05 14.567a2.113 2.113 0 001.513 0c3.493-1.362 9.05-6.089 9.05-14.567 0-.742-.477-1.41-1.205-1.696zm-8.601 13.028V33.178l6.503 2.54c-.381 5.932-4.147 9.221-6.503 10.338zM25.462 32a8.716 8.716 0 008.717-8.717 8.716 8.716 0 00-8.717-8.717 8.716 8.716 0 00-8.716 8.717A8.716 8.716 0 0025.462 32zM32 34.724c0-.17.054-.327.075-.49-.17-.007-.334-.055-.51-.055h-1.138a11.868 11.868 0 01-4.965 1.09c-1.77 0-3.445-.395-4.964-1.09H19.36c-5.053 0-9.153 4.1-9.153 9.153v2.833a3.27 3.27 0 003.269 3.269h23.971c.463 0 .906-.103 1.308-.273C35.078 46.24 32 41.214 32 34.724z" fill="#FFF"/>
</svg>
