<svg viewBox="0 0 64 64" xmlns="http://www.w3.org/2000/svg">
    <path fill="#637E97" d="M0 0h64v64H0z"/>
    <path d="M16.063 29.723a4.558 4.558 0 004.553-4.553 4.558 4.558 0 00-4.553-4.554 4.558 4.558 0 00-4.554 4.554 4.558 4.558 0 004.553 4.553zm31.875 0a4.558 4.558 0 004.553-4.553 4.558 4.558 0 00-4.553-4.554 4.558 4.558 0 00-4.554 4.554 4.558 4.558 0 004.553 4.553zM50.213 32h-4.553a4.54 4.54 0 00-3.21 1.323c2.868 1.573 4.903 4.412 5.344 7.784h4.696a2.274 2.274 0 002.277-2.277v-2.276A4.558 4.558 0 0050.214 32zM32 32a7.965 7.965 0 007.969-7.969A7.965 7.965 0 0032 16.063a7.965 7.965 0 00-7.969 7.968A7.965 7.965 0 0032 32zm5.464 2.277h-.59c-1.48.711-3.124 1.138-4.874 1.138-1.75 0-3.387-.427-4.874-1.138h-.59a8.199 8.199 0 00-8.197 8.196v2.05a3.416 3.416 0 003.415 3.414h20.492a3.416 3.416 0 003.415-3.415v-2.049a8.199 8.199 0 00-8.197-8.196zm-15.916-.954A4.54 4.54 0 0018.34 32h-4.553a4.558 4.558 0 00-4.554 4.554v2.276a2.274 2.274 0 002.277 2.277h4.689a10.433 10.433 0 015.35-7.784z" fill="#FFF"/>
</svg>
