<svg viewBox="0 0 64 64" xmlns="http://www.w3.org/2000/svg">
    <path fill="#4B557F" d="M0 0h64v64H0z"/>
    <path d="M42.879 29.945a8.96 8.96 0 00-8.965 8.965 8.96 8.96 0 008.965 8.965 8.96 8.96 0 008.965-8.965 8.96 8.96 0 00-8.965-8.965zm3.984 9.357c0 .33-.274.604-.604.604h-3.772a.608.608 0 01-.604-.604v-4.768c0-.33.274-.604.604-.604h.784c.33 0 .604.274.604.604v3.38h2.384c.33 0 .604.274.604.604v.784zm-14.941-.392c0-1.73.417-3.368 1.133-4.825a8.295 8.295 0 00-1.532-.155h-1.04a10.85 10.85 0 01-4.538.996 10.87 10.87 0 01-4.538-.996h-1.04A8.37 8.37 0 0012 42.297v2.59a2.99 2.99 0 002.988 2.988h21.61c-2.82-1.986-4.676-5.26-4.676-8.965zm-5.977-6.972a7.968 7.968 0 007.97-7.97A7.968 7.968 0 0025.944 16a7.968 7.968 0 00-7.968 7.969 7.968 7.968 0 007.968 7.969z" fill="#FFF"/>
</svg>
