<svg xmlns="http://www.w3.org/2000/svg" viewBox="0 0 64 64">
    <!-- All rights goes to font awesome for this icon! -->
    <path fill="currentColor"
          d="M43.4214 35.6773L45.1286 31.2758C45.4143 30.5375 44.8643 29.75 44.0571 29.75H39.8786C40.6643 28.4211 41.15 26.8953 41.15 25.25V25.2289C43.95 24.6805 45.7214 23.8859 45.7214 23C45.7214 22.0648 43.7714 21.2352 40.7143 20.6797C40.0571 18.3734 38.7857 16.0531 37.8143 14.8578C37.1357 14.0211 35.9643 13.7609 34.9929 14.2391L33.0214 15.2094C32.3786 15.5258 31.6214 15.5258 30.9786 15.2094L29.0071 14.2391C28.0357 13.7609 26.8643 14.0211 26.1857 14.8578C25.2214 16.0531 23.9429 18.3734 23.2857 20.6797C20.2357 21.2352 18.2857 22.0648 18.2857 23C18.2857 23.8859 20.0571 24.6805 22.8571 25.2289V25.25C22.8571 26.8953 23.3429 28.4211 24.1286 29.75H20.0214C19.2 29.75 18.65 30.5727 18.9714 31.318L20.8143 35.5508C17.95 37.1891 16 40.2055 16 43.7V46.85C16 48.5867 17.4357 50 19.2 50H44.8C46.5643 50 48 48.5867 48 46.85V43.7C48 40.2969 46.1571 37.3437 43.4214 35.6773ZM28.5714 47.75L25.6 34.25L29.1429 36.5L30.8571 39.3125L28.5714 47.75ZM35.4286 47.75L33.1429 39.3125L34.8571 36.5L38.4 34.25L35.4286 47.75ZM38.4071 26.7617C38.1286 27.5984 37.9071 28.4914 37.2286 29.1102C36.5071 29.7641 33.8 30.6852 32.6571 27.3523C32.4571 26.7617 31.5571 26.7617 31.35 27.3523C30.1357 30.882 27.35 29.6305 26.7786 29.1102C26.1 28.4914 25.8714 27.5984 25.6 26.7617C25.5429 26.5859 25.15 26.3609 25.15 26.3539V25.5945C27.1714 25.8477 29.5071 26.0023 32.0071 26.0023C34.5071 26.0023 36.8429 25.8547 38.8643 25.5945V26.3539C38.8571 26.3609 38.4643 26.5789 38.4071 26.7617Z"/>
</svg>
