<svg viewBox="0 0 64 64" xmlns="http://www.w3.org/2000/svg">
    <path fill="#3471A9" d="M0 0h64v64H0z"/>
    <path d="M22.785 31.583a8.037 8.037 0 008.042-8.042 8.037 8.037 0 00-8.042-8.041 8.037 8.037 0 00-8.041 8.041 8.037 8.037 0 008.041 8.042zM28.3 33.88h-.596c-1.493.718-3.151 1.15-4.918 1.15-1.766 0-3.417-.432-4.918-1.15h-.596A8.273 8.273 0 009 42.152v2.067a3.447 3.447 0 003.446 3.447h20.678a3.447 3.447 0 003.447-3.447v-2.067a8.273 8.273 0 00-8.272-8.272zm15.164-2.297a6.894 6.894 0 006.893-6.893 6.894 6.894 0 00-6.893-6.892 6.894 6.894 0 00-6.892 6.892 6.894 6.894 0 006.892 6.893zm3.447 2.297h-.273c-.998.345-2.054.575-3.174.575s-2.175-.23-3.173-.575h-.273c-1.465 0-2.815.424-4 1.106 1.753 1.888 2.851 4.394 2.851 7.166v2.757c0 .158-.036.308-.043.46h12.68a3.447 3.447 0 003.446-3.447 8.037 8.037 0 00-8.041-8.042z" fill="#FFF"/>
</svg>
